HIERARCHY
ROOT Hips
{
	OFFSET -3.958830 18.904000 13.208200
	CHANNELS 6 Xposition Yposition Zposition Zrotation Yrotation Xrotation 
	JOINT LHipJoint
	{
		OFFSET 0.000000 0.000000 0.000000
		CHANNELS 3 Zrotation Yrotation Xrotation
		JOINT LeftUpLeg
		{
			OFFSET 1.800000 -1.400000 0.085000
			CHANNELS 3 Zrotation Yrotation Xrotation
			JOINT LeftLeg
			{
				OFFSET 2.215000 -6.000000 0.000000
				CHANNELS 3 Zrotation Yrotation Xrotation
				JOINT LeftFoot
				{
					OFFSET 2.500000 -6.900000 0.000000
					CHANNELS 3 Zrotation Yrotation Xrotation
					JOINT LeftToeBase
					{
						OFFSET 0.200000 -0.500000 1.950000
						CHANNELS 3 Zrotation Yrotation Xrotation
						End Site
						{
							OFFSET 0.000000 0.000000 0.000000
						}
					}
				}
			}
		}
	}
	JOINT RHipJoint
	{
		OFFSET 0.000000 0.000000 0.000000
		CHANNELS 3 Zrotation Yrotation Xrotation
		JOINT RightUpLeg
		{
			OFFSET -1.800000 -1.400000 0.085000
			CHANNELS 3 Zrotation Yrotation Xrotation
			JOINT RightLeg
			{
				OFFSET -2.215000 -6.000000 0.000000
				CHANNELS 3 Zrotation Yrotation Xrotation
				JOINT RightFoot
				{
					OFFSET -2.500000 -6.900000 0.000000
					CHANNELS 3 Zrotation Yrotation Xrotation
					JOINT RightToeBase
					{
						OFFSET -0.200000 -0.500000 1.950000
						CHANNELS 3 Zrotation Yrotation Xrotation
						End Site
						{
							OFFSET 0.000000 0.000000 0.000000
						}
					}
				}
			}
		}
	}
	JOINT LowerBack
	{
		OFFSET 0.000000 0.000000 0.000000
		CHANNELS 3 Zrotation Yrotation Xrotation
		JOINT Spine
		{
			OFFSET -0.087000 1.940000 -0.288900
			CHANNELS 3 Zrotation Yrotation Xrotation
			JOINT Spine1
			{
				OFFSET 0.000000 1.950000 0.060000
				CHANNELS 3 Zrotation Yrotation Xrotation
				JOINT Neck
				{
					OFFSET 0.000000 0.000000 0.000000
					CHANNELS 3 Zrotation Yrotation Xrotation
					JOINT Neck1
					{
						OFFSET 0.000000 1.600000 0.340000
						CHANNELS 3 Zrotation Yrotation Xrotation
						JOINT Head
						{
							OFFSET 0.000000 1.667000 -0.240000
							CHANNELS 3 Zrotation Yrotation Xrotation
							End Site
							{
								OFFSET 0.000000 0.000000 0.000000
							}
						}
					}
				}
				JOINT LeftShoulder
				{
					OFFSET 0.000000 0.000000 0.000000
					CHANNELS 3 Zrotation Yrotation Xrotation
					JOINT LeftArm
					{
						OFFSET 2.700000 1.550000 -0.730000
						CHANNELS 3 Zrotation Yrotation Xrotation
						JOINT LeftForeArm
						{
							OFFSET 5.450000 0.000000 0.000000
							CHANNELS 3 Zrotation Yrotation Xrotation
							JOINT LeftHand
							{
								OFFSET 3.450000 0.000000 0.000000
								CHANNELS 3 Zrotation Yrotation Xrotation
								JOINT LeftHandIndex1
								{
									OFFSET 0.750000 0.000000 0.000000
									CHANNELS 3 Zrotation Yrotation Xrotation
									End Site
									{
										OFFSET 0.000000 0.000000 0.000000
									}
								}
							}
						}
					}
				}
				JOINT RightShoulder
				{
					OFFSET 0.000000 0.000000 0.000000
					CHANNELS 3 Zrotation Yrotation Xrotation
					JOINT RightArm
					{
						OFFSET -2.700000 1.550000 -0.730000
						CHANNELS 3 Zrotation Yrotation Xrotation
						JOINT RightForeArm
						{
							OFFSET -5.450000 0.000000 0.000000
							CHANNELS 3 Zrotation Yrotation Xrotation
							JOINT RightHand
							{
								OFFSET -3.450000 0.000000 0.000000
								CHANNELS 3 Zrotation Yrotation Xrotation
								JOINT RightHandIndex1
								{
									OFFSET -0.750000 0.000000 0.000000
									CHANNELS 3 Zrotation Yrotation Xrotation
									End Site
									{
										OFFSET 0.000000 0.000000 0.000000
									}
								}
							}
						}
					}
				}
			}
		}
	}
}
MOTION
Frames: 5
Frame Time: 0.016667
-0.398180 17.434750 -0.479810 16.396685 -24.136508 -32.578981 -16.078425 11.507005 6.779247 9.348546 -0.448784 -71.507153 3.444072 14.568498 64.855640 0.672911 11.606781 0.087875 0.930490 0.690930 0.945240 17.835660 -8.843813 1.377477 -19.212533 2.661157 10.492045 8.830615 -7.278545 14.743259 -1.117239 -5.058580 2.435716 0.249650 -0.726160 0.117970 -1.639970 -4.491215 -9.431312 -10.851893 10.093305 51.340873 5.117852 8.248067 13.474837 4.211204 -9.891899 -22.047350 -24.133335 17.385161 59.037436 -6.224950 4.021260 -34.427570 -23.686944 -27.577681 10.270079 -53.861702 10.437241 -23.234042 -55.346209 -13.439346 -6.297203 -2.861573 3.012837 1.015310 -0.694300 0.704490 -0.018070 17.937557 45.612241 16.337486 28.655883 31.610256 -22.890297 -119.397984 55.009586 -102.800598 2.728789 0.201215 0.126010 0.153910 -0.283470 -0.343980 
-0.370030 17.432000 -0.414070 17.250381 -26.381276 -33.769668 -16.045021 11.290467 6.925742 11.935196 1.747715 -72.017360 1.288155 15.409426 61.236821 0.563315 11.387500 0.134607 0.921330 0.679970 0.919930 17.905572 -8.876331 1.283120 -19.858992 2.961349 10.395344 8.397000 -7.298645 15.581824 -1.100268 -5.134546 2.401276 0.251620 -0.702950 0.134640 -1.761309 -4.199134 -9.464551 -10.550075 10.150947 52.591862 4.204469 8.668929 13.614645 3.792248 -10.236964 -21.229263 -24.761354 17.589792 56.589812 -5.882120 3.958110 -34.424180 -22.240206 -26.685387 10.046411 -51.582370 10.249283 -22.810364 -60.008740 -12.906273 -6.702300 -2.894748 3.069601 0.994700 -0.674070 0.681530 -0.016650 17.002553 45.111315 15.725036 28.996766 32.473376 -20.485832 -122.054465 53.528839 -107.995210 2.688085 -0.046970 0.127700 0.140500 -0.267960 -0.335070 
-0.335670 17.435510 -0.374300 18.900013 -27.667808 -34.687968 -16.039068 11.181109 7.042520 13.578994 3.104566 -72.490034 -0.426291 15.183339 55.064993 0.379624 10.667790 0.350184 0.919840 0.688820 0.903840 17.936793 -8.907715 1.126403 -21.252656 3.454010 9.142075 7.896735 -7.288166 17.115484 -1.048546 -5.135192 2.391447 0.259790 -0.684750 0.130220 -1.782954 -4.138218 -9.444085 -12.132405 11.213718 53.340340 4.631344 8.802753 13.330490 2.934790 -10.479738 -20.115527 -25.148910 17.690180 54.231727 -5.099760 3.970490 -34.604860 -20.278207 -25.538615 9.805063 -49.882724 9.548566 -22.076018 -63.893911 -12.210116 -6.965404 -2.916405 3.121600 0.964820 -0.663430 0.662230 -0.007620 16.379014 44.156195 14.661063 29.526327 32.944372 -17.764809 -125.463739 51.738992 -113.301455 2.602310 -0.420112 0.130940 0.138200 -0.273990 -0.319750 
-0.308300 17.441890 -0.331760 19.942235 -28.364469 -34.871254 -16.025348 11.244568 7.021012 12.928428 2.456773 -72.975498 0.578816 13.638626 50.601007 0.205302 9.812210 0.638130 0.899520 0.679040 0.865970 17.940317 -8.978483 1.026602 -22.193725 3.652994 7.836673 7.315735 -7.253942 18.371390 -0.992402 -5.109117 2.395620 0.263120 -0.629450 0.140520 -1.759357 -4.250369 -9.355470 -13.612569 11.952818 53.500053 5.527905 8.565547 13.111235 2.080025 -10.843669 -18.941956 -25.657826 17.933917 51.931391 -4.801520 3.693240 -34.473380 -18.952915 -24.217222 9.307306 -49.082379 8.544186 -21.250882 -65.069219 -11.317910 -7.156818 -2.970952 3.139469 0.929930 -0.628790 0.635770 0.007020 16.409361 43.062385 13.639120 29.991697 33.015643 -15.272903 -130.556864 49.258517 -119.287030 2.472029 -0.807561 0.125700 0.160610 -0.256910 -0.292790 
-0.261350 17.451950 -0.274330 20.798413 -30.636768 -34.873879 -16.012730 11.193876 7.107288 14.301588 2.643011 -72.412797 0.685916 14.420297 53.073106 0.309732 10.281317 0.490895 0.876090 0.646850 0.853740 17.981620 -9.036908 0.847961 -22.516000 3.597652 5.730061 6.185107 -6.997509 19.811231 -0.923921 -4.949028 2.429676 0.242600 -0.620940 0.158730 -1.750441 -4.160651 -9.357484 -14.143740 12.533565 53.538487 5.782774 8.940806 12.157918 1.720185 -10.756234 -18.290625 -25.903473 18.203294 51.451581 -5.411110 3.648050 -33.851550 -18.063848 -22.884207 8.820542 -48.565062 7.890326 -20.407656 -65.897477 -9.715263 -7.726093 -3.002490 3.165552 0.916130 -0.615770 0.626470 -0.003850 16.042181 41.488616 13.146591 31.889971 32.001278 -13.682814 -136.011377 47.836740 -127.241470 2.398093 -1.078146 0.131570 0.141100 -0.239830 -0.288850 
